<svg width="15" height="20" viewBox="0 0 15 20" fill="none" xmlns="http://www.w3.org/2000/svg">
<path d="M3.1626 19.8379C2.43799 19.8379 1.8877 19.6431 1.51172 19.2534C1.14258 18.8638 0.958008 18.2759 0.958008 17.4897V10.7017C0.958008 9.9292 1.14258 9.34814 1.51172 8.9585C1.8877 8.56885 2.43799 8.37402 3.1626 8.37402H12.1553C12.8867 8.37402 13.437 8.56885 13.8062 8.9585C14.1821 9.34814 14.3701 9.9292 14.3701 10.7017V17.4897C14.3701 18.2759 14.1821 18.8638 13.8062 19.2534C13.437 19.6431 12.8867 19.8379 12.1553 19.8379H3.1626ZM3.34717 18.228H11.9912C12.2031 18.228 12.3638 18.1665 12.4731 18.0435C12.5825 17.9204 12.6372 17.7393 12.6372 17.5V10.6914C12.6372 10.459 12.5825 10.2847 12.4731 10.1685C12.3638 10.0454 12.2031 9.98389 11.9912 9.98389H3.34717C3.14209 9.98389 2.98145 10.0454 2.86523 10.1685C2.75586 10.2847 2.70117 10.459 2.70117 10.6914V17.5C2.70117 17.7393 2.75586 17.9204 2.86523 18.0435C2.98145 18.1665 3.14209 18.228 3.34717 18.228ZM2.70117 9.15332V6.07715C2.70117 4.87402 2.93359 3.87256 3.39844 3.07275C3.86328 2.26611 4.4751 1.66113 5.23389 1.25781C5.99268 0.854492 6.80273 0.652832 7.66406 0.652832C8.53223 0.652832 9.34229 0.854492 10.0942 1.25781C10.853 1.66113 11.4648 2.26611 11.9297 3.07275C12.4014 3.87256 12.6372 4.87402 12.6372 6.07715V9.15332H10.9556V5.89258C10.9556 5.10645 10.8018 4.44336 10.4941 3.90332C10.1934 3.36328 9.79346 2.95654 9.29443 2.68311C8.80225 2.40967 8.25879 2.27295 7.66406 2.27295C7.07617 2.27295 6.53271 2.40967 6.03369 2.68311C5.53467 2.95654 5.13477 3.36328 4.83398 3.90332C4.5332 4.44336 4.38281 5.10645 4.38281 5.89258V9.15332H2.70117Z" fill="#8391A1"/>
<path d="M3.1626 19.8379C2.43799 19.8379 1.8877 19.6431 1.51172 19.2534C1.14258 18.8638 0.958008 18.2759 0.958008 17.4897V10.7017C0.958008 9.9292 1.14258 9.34814 1.51172 8.9585C1.8877 8.56885 2.43799 8.37402 3.1626 8.37402H12.1553C12.8867 8.37402 13.437 8.56885 13.8062 8.9585C14.1821 9.34814 14.3701 9.9292 14.3701 10.7017V17.4897C14.3701 18.2759 14.1821 18.8638 13.8062 19.2534C13.437 19.6431 12.8867 19.8379 12.1553 19.8379H3.1626ZM3.34717 18.228H11.9912C12.2031 18.228 12.3638 18.1665 12.4731 18.0435C12.5825 17.9204 12.6372 17.7393 12.6372 17.5V10.6914C12.6372 10.459 12.5825 10.2847 12.4731 10.1685C12.3638 10.0454 12.2031 9.98389 11.9912 9.98389H3.34717C3.14209 9.98389 2.98145 10.0454 2.86523 10.1685C2.75586 10.2847 2.70117 10.459 2.70117 10.6914V17.5C2.70117 17.7393 2.75586 17.9204 2.86523 18.0435C2.98145 18.1665 3.14209 18.228 3.34717 18.228ZM2.70117 9.15332V6.07715C2.70117 4.87402 2.93359 3.87256 3.39844 3.07275C3.86328 2.26611 4.4751 1.66113 5.23389 1.25781C5.99268 0.854492 6.80273 0.652832 7.66406 0.652832C8.53223 0.652832 9.34229 0.854492 10.0942 1.25781C10.853 1.66113 11.4648 2.26611 11.9297 3.07275C12.4014 3.87256 12.6372 4.87402 12.6372 6.07715V9.15332H10.9556V5.89258C10.9556 5.10645 10.8018 4.44336 10.4941 3.90332C10.1934 3.36328 9.79346 2.95654 9.29443 2.68311C8.80225 2.40967 8.25879 2.27295 7.66406 2.27295C7.07617 2.27295 6.53271 2.40967 6.03369 2.68311C5.53467 2.95654 5.13477 3.36328 4.83398 3.90332C4.5332 4.44336 4.38281 5.10645 4.38281 5.89258V9.15332H2.70117Z" fill="black" fill-opacity="0.2"/>
</svg>
